<?xml version="1.0" encoding="utf-8"?>
<!-- Generator: Adobe Illustrator 15.0.0, SVG Export Plug-In  -->
<!DOCTYPE svg PUBLIC "-//W3C//DTD SVG 1.1//EN" "http://www.w3.org/Graphics/SVG/1.1/DTD/svg11.dtd" [
	<!ENTITY ns_flows "http://ns.adobe.com/Flows/1.0/">
]>
<svg version="1.1"
	 xmlns="http://www.w3.org/2000/svg" xmlns:xlink="http://www.w3.org/1999/xlink" xmlns:a="http://ns.adobe.com/AdobeSVGViewerExtensions/3.0/"
	 x="0px" y="0px" width="153px" height="78px" viewBox="-1.313 -7.517 153 78" enable-background="new -1.313 -7.517 153 78"
	 xml:space="preserve">
<defs>
</defs>
<path fill="#0054A6" d="M20.012,37.933c7.534,0,13.127-2.93,16.839-5.858c2.035,2.891,5.517,4.866,9.295,4.866
	c3.945-0.007,7.018-0.807,9.67-1.902l-0.679,1.898l14.11,0.004l3.931-2.62l-0.935,2.62h3.28h17.124l4.304-12.208
	c0.995,0.279,2.898,1.512,4.262,2.806l1.804,1.72l8.063-5.358c2.273,8.072,9.982,14.033,19.118,14.033
	c10.919,0,19.803-8.509,19.803-18.967C150,8.506,141.116,0,130.197,0c-6.44,0-12.374,2.983-16.045,7.853l-3.282-3.009l-8.852,5.882
	l2.171-6.071H87.08h-3.282H66.693l-3.826,10.683c-1.611,4.478-3.351,5.64-5.86,6.48c-0.387,0.134-0.759-0.235-0.621-0.619
	l5.94-16.543H42.21l-3.351,9.358l-1.25-2.364c-1.33-2.52-6.357-10.805-15.206-11.551C21.613,0.033,20.83,0,20.084,0
	c-1.881,0-3.558,0.213-4.986,0.634C12.632,1.361,10.546,2.302,8.726,3.5C6.285,5.108,4.429,7.019,2.702,9.695
	c-1.805,2.794-2.419,5.832-2.617,7.887c-0.785,8.232,4.096,13.167,5.7,14.79C7.074,33.675,11.908,37.933,20.012,37.933z
	 M36.624,15.693l2.181-1.531l-0.032,0.086c-2.682,7.414-9.182,11.294-14.215,11.294c-0.677,0-1.476-0.067-2.309-0.292L36.624,15.693
	z M144.875,41.299H9.913c-1.893,0-3.576,1.186-4.196,2.956L0.425,59.344C-0.031,60.643,0.943,62,2.331,62h134.962
	c1.891,0,3.576-1.186,4.196-2.957l5.293-15.088C147.237,42.655,146.264,41.299,144.875,41.299z"/>
<g>
	<g>
		<path fill-rule="evenodd" clip-rule="evenodd" fill="#FFE735" d="M132.931,45.136c-5.781,0-7.373,2.275-7.743,3.881
			c-0.416,1.813,0.35,3.077,2.977,3.451l4.253,0.615c1.483,0.226,1.985,0.444,1.838,1.096c-0.241,1.043-1.496,1.281-2.604,1.281
			c-2.292,0-2.71-0.581-2.608-1.504h-5.21c-0.521,3.402,2.541,4.137,7.01,4.137c1.81,0,7.616-0.035,8.565-4.171
			c0.496-2.153-0.769-3.076-3.136-3.471c-1.246-0.204-4.519-0.666-5.588-0.836c-0.644-0.104-0.901-0.342-0.806-0.753
			c0.184-0.804,1.086-1.196,2.563-1.196c2.014,0,2.597,0.581,2.536,1.419h4.988C140.35,46.197,137.715,45.136,132.931,45.136z
			 M124.898,45.497h-13.471l-0.6,2.76h4.631l-2.081,9.545h4.207l2.081-9.545h4.632L124.898,45.497z M78.873,49.486
			c0.516-2.265-0.335-3.989-3.835-3.989h-9.526l-2.736,12.305h4.294l0.912-4.325h5.431C76.877,53.477,78.42,51.463,78.873,49.486z
			 M74.433,49.486c-0.241,1.057-0.868,1.508-2.059,1.508h-3.825l0.69-3.016h3.825C74.255,47.979,74.675,48.429,74.433,49.486z
			 M53.262,45.497H42.933l-2.738,12.305h4.298l0.914-4.102h3.936c1.083,0,1.676,0.345,1.246,2.275
			c-0.127,0.568-0.27,1.292-0.154,1.826h4.712c-0.402-0.618-0.302-1.396,0.04-3.824c0.187-1.328-0.307-1.949-1.063-2.207
			l0.006-0.035c1.218-0.276,2.322-1.172,2.686-2.808C57.271,46.876,56.421,45.497,53.262,45.497z M52.064,49.58
			c-0.189,0.844-0.863,1.363-1.911,1.363h-4.135l0.599-2.689h4.133C51.799,48.254,52.244,48.771,52.064,49.58z M31.089,45.497
			l-8.336,12.305h4.605L28.58,55.8h5.634l0.331,2.002h4.604l-2.805-12.305H31.089z M30.158,53.251l2.822-4.653h0.036l0.753,4.653
			H30.158z M19.2,53.036c-0.595,1.402-1.932,2.313-3.826,2.313c-2.725,0-3.125-1.705-2.681-3.698
			c0.443-1.994,1.691-3.702,4.328-3.702c2.389,0,2.686,1.454,2.742,2.315h4.692c0.008-4.174-2.991-5.017-6.85-5.017
			c-5.488,0-8.476,2.363-9.375,6.403c-0.924,4.153,1.178,6.402,6.524,6.402c5.984,0,8.025-2.416,9.118-5.018H19.2z M83.862,45.497
			l-8.335,12.305h4.604l1.222-2.002h5.633l0.333,2.002h4.604l-2.807-12.305H83.862z M82.931,53.251l2.823-4.653h0.035l0.754,4.653
			H82.931z M105.994,45.497H95.665l-2.737,12.305h4.299l0.912-4.102h3.937c1.082,0,1.675,0.345,1.245,2.275
			c-0.128,0.568-0.27,1.292-0.153,1.826h4.712c-0.403-0.618-0.303-1.396,0.038-3.824c0.188-1.328-0.305-1.949-1.062-2.207
			l0.007-0.035c1.219-0.276,2.321-1.172,2.686-2.808C110.003,46.876,109.154,45.497,105.994,45.497z M104.797,49.58
			c-0.188,0.844-0.863,1.363-1.911,1.363h-4.134l0.599-2.689h4.133C104.531,48.254,104.977,48.771,104.797,49.58z M68.293,33.861
			l6.61-4.39l7.781-21.739H68.884l-3.16,8.833c-2.002,4.884-5.141,7.772-9.269,8.58c-2.269,0.442-4.161-1.733-3.387-3.892
			l4.859-13.521H44.402l-2.708,7.555C38.642,23.721,31.125,28.62,24.557,28.62c-2.92,0-5.656-0.971-7.727-3.021l-0.26-0.279
			l18.322-12.182c-0.255-0.474-4.677-9.293-12.751-9.973c-1.918-0.159-4.238-0.148-6.156,0.417
			c-1.911,0.564-3.821,1.346-5.539,2.483c-2.32,1.527-3.843,3.294-5.13,5.289c-1.289,1.995-1.936,4.366-2.141,6.519
			c-0.592,6.194,2.631,10.125,4.826,12.344c1.542,1.561,5.663,4.639,12.01,4.639c8.845,0,14.759-4.463,18.091-8.175
			c0.175,3.79,3.935,7.19,8.038,7.182c10.987-0.021,15.798-6.924,15.944-7.142l-2.554,7.142H68.293z M12.665,18.842
			c-0.091-0.637-0.063-1.296,0.087-1.969c0.15-0.674,0.435-1.339,0.848-1.995c0.412-0.655,0.998-1.228,1.753-1.72
			c0.856-0.56,1.688-0.923,2.496-1.089c0.804-0.166,1.563-0.206,2.272-0.116c0.712,0.087,1.329,0.271,1.859,0.55
			c0.53,0.279,0.958,0.597,1.29,0.959c0.025,0.029,0.074,0.083,0.142,0.156c0.07,0.076,0.099,0.141,0.092,0.192L13.22,20.529
			C12.938,20.041,12.752,19.479,12.665,18.842z M130.197,3.077c-6.875,0-12.781,3.957-15.341,9.611l-4.291-3.934l-14.608,9.708
			l3.837-10.729h-13.8l-9.354,26.129h13.8l3.646-10.342c1.929-5.206,9.279,1.803,9.279,1.803l10.147-6.748
			c0,0.13-0.007,0.261-0.007,0.392c0,8.775,7.469,15.887,16.69,15.887s16.698-7.111,16.698-15.887
			C146.896,10.189,139.419,3.077,130.197,3.077z M134.951,25.586l-4.754-3.421l-4.749,3.421l1.812-5.535l-4.748-3.42h5.872
			l1.813-5.532l1.816,5.532h5.873l-4.752,3.42L134.951,25.586z"/>
	</g>
</g>
</svg>
